<svg width="251" height="251" viewBox="0 0 251 251" fill="none" xmlns="http://www.w3.org/2000/svg">
<path d="M162.763 175.15C163.972 176.032 165.181 176.473 166.994 177.356C175.655 181.548 183.914 184.195 193.382 184.195C224.807 184.195 250.994 155.294 250.994 121.098C250.994 86.9013 224.605 58 193.785 58C173.037 58 154.101 79.8415 141.612 93.52L125.9 110.728L99.5112 82.0477C88.8349 70.3548 77.5543 58 57.6117 58C26.1872 58 0 86.9013 0 121.098C0 155.294 26.3886 184.195 57.2089 184.195C65.8708 184.195 75.3384 181.989 83.5975 177.356C91.0507 172.723 110.993 158.824 122.475 146.469L125.698 142.939L139.799 157.941C149.065 168.31 156.519 171.84 162.763 175.15ZM153.698 113.376L159.943 106.537C169.411 96.1674 183.512 81.1652 193.785 81.1652C213.325 81.1652 230.246 101.021 230.246 122.421C230.246 143.822 213.728 162.354 193.785 162.354C187.54 162.354 177.267 158.382 170.619 154.632C153.698 143.822 140.001 126.613 140.001 126.613L153.698 113.376ZM107.77 130.143C98.3026 140.512 80.7773 152.867 74.3312 156.397C68.8924 159.927 63.6549 161.03 57.4103 161.03C37.8707 161.03 20.9497 142.498 20.9497 121.098C20.9497 99.6973 37.4678 81.1652 57.4103 81.1652C68.6909 81.1652 73.9284 86.6807 83.7989 97.9324L110.993 126.613L107.77 130.143V130.143Z" fill="#756AF8"/>
<path d="M175.15 88.2306C176.032 87.022 176.473 85.8133 177.356 84.0004C181.548 75.3385 184.195 67.0795 184.195 57.6118C184.195 26.1872 155.294 2.97145e-05 121.098 2.97145e-05C86.9013 2.97145e-05 58 26.3886 58 57.2089C58 77.9572 79.8415 96.8925 93.52 109.382L110.728 125.094L82.0477 151.483C70.3548 162.159 58 173.44 58 193.382C58 224.807 86.9013 250.994 121.098 250.994C155.294 250.994 184.195 224.605 184.195 193.785C184.195 185.123 181.989 175.655 177.356 167.396C172.723 159.943 158.824 140.001 146.469 128.519L142.939 125.296L157.941 111.195C168.31 101.929 171.84 94.4753 175.15 88.2306ZM113.376 97.2954L106.537 91.0508C96.1674 81.5831 81.1652 67.4823 81.1652 57.2089C81.1652 37.6693 101.021 20.7483 122.421 20.7483C143.822 20.7483 162.354 37.2664 162.354 57.2089C162.354 63.4535 158.382 73.727 154.632 80.3745C143.822 97.2954 126.613 110.993 126.613 110.993L113.376 97.2954ZM130.143 143.224C140.512 152.691 152.867 170.217 156.397 176.663C159.927 182.102 161.03 187.339 161.03 193.584C161.03 213.123 142.498 230.044 121.098 230.044C99.6973 230.044 81.1652 213.526 81.1652 193.584C81.1652 182.303 86.6807 177.066 97.9324 167.195L126.613 140.001L130.143 143.224V143.224Z" fill="#756AF8"/>
</svg>
